<svg width="50" height="50" viewBox="0 0 50 50" fill="none" xmlns="http://www.w3.org/2000/svg">
<path d="M25 0C11.2142 0 0 11.2152 0 25C0 38.7848 11.2142 50 25 50C38.7858 50 50 38.7848 50 25C50 11.2152 38.7858 0 25 0ZM25 47.9167C12.3637 47.9167 2.0833 37.6363 2.0833 25C2.0833 12.3637 12.3637 2.0833 25 2.0833C37.6363 2.0833 47.9167 12.3637 47.9167 25C47.9167 37.6363 37.6363 47.9167 25 47.9167Z" fill="white"/>
<path d="M34.9386 24.1241L20.3553 14.7491C20.0358 14.5406 19.6229 14.5294 19.2933 14.7104C18.9575 14.8935 18.75 15.2435 18.75 15.625V34.375C18.75 34.7564 18.9575 35.1064 19.2933 35.2895C19.4479 35.374 19.6208 35.4167 19.7917 35.4167C19.987 35.4167 20.1844 35.3617 20.3553 35.2509L34.9386 25.8759C35.2356 25.6847 35.4167 25.354 35.4167 25C35.4167 24.646 35.2356 24.3154 34.9386 24.1241ZM20.8333 32.4666V17.5334L32.4483 25L20.8333 32.4666Z" fill="white"/>
</svg>
