<svg width="24" height="24" viewBox="0 0 24 24" fill="none" xmlns="http://www.w3.org/2000/svg">
<g clip-path="url(#clip0)">
<path d="M23.6164 11.0675L14.9491 2.40009C14.7017 2.15268 14.372 2.01688 14.0204 2.01688C13.6684 2.01688 13.3388 2.15288 13.0914 2.40009L12.3045 3.18721C12.0573 3.43423 11.9211 3.76418 11.9211 4.11598C11.9211 4.46759 12.0573 4.80866 12.3045 5.05568L17.3608 10.1232H1.29657C0.572288 10.1232 0 10.6902 0 11.4147V12.5274C0 13.2519 0.572288 13.8761 1.29657 13.8761H17.4182L12.3047 18.9719C12.0575 19.2193 11.9213 19.5402 11.9213 19.892C11.9213 20.2435 12.0575 20.5691 12.3047 20.8163L13.0916 21.6009C13.339 21.8483 13.6686 21.9832 14.0206 21.9832C14.3722 21.9832 14.7019 21.8466 14.9493 21.5992L23.6166 12.9319C23.8646 12.6837 24.001 12.3524 24 12.0002C24.0008 11.6468 23.8646 11.3153 23.6164 11.0675Z" fill="#FF9900"/>
</g>
<defs>
<clipPath id="clip0">
<rect width="24" height="24" fill="white"/>
</clipPath>
</defs>
</svg>
